<!-- Generated by scripts/build_patterns.py from sigint_terrain_bundle/tokens.json. Do not edit by hand. -->
<svg xmlns="http://www.w3.org/2000/svg" width="200" height="100" viewBox="0 0 200 100">
<rect width="200" height="100" fill="#f4f1ea"/>
<g fill="#1c1c1c">
  <circle cx="7.00" cy="7.00" r="0.4"/>
  <circle cx="21.00" cy="7.00" r="0.4"/>
  <circle cx="35.00" cy="7.00" r="0.4"/>
  <circle cx="49.00" cy="7.00" r="0.4"/>
  <circle cx="63.00" cy="7.00" r="0.4"/>
  <circle cx="77.00" cy="7.00" r="0.4"/>
  <circle cx="91.00" cy="7.00" r="0.4"/>
  <circle cx="105.00" cy="7.00" r="0.4"/>
  <circle cx="119.00" cy="7.00" r="0.4"/>
  <circle cx="133.00" cy="7.00" r="0.4"/>
  <circle cx="147.00" cy="7.00" r="0.4"/>
  <circle cx="161.00" cy="7.00" r="0.4"/>
  <circle cx="175.00" cy="7.00" r="0.4"/>
  <circle cx="189.00" cy="7.00" r="0.4"/>
  <circle cx="14.00" cy="21.00" r="0.4"/>
  <circle cx="28.00" cy="21.00" r="0.4"/>
  <circle cx="42.00" cy="21.00" r="0.4"/>
  <circle cx="56.00" cy="21.00" r="0.4"/>
  <circle cx="70.00" cy="21.00" r="0.4"/>
  <circle cx="84.00" cy="21.00" r="0.4"/>
  <circle cx="98.00" cy="21.00" r="0.4"/>
  <circle cx="112.00" cy="21.00" r="0.4"/>
  <circle cx="126.00" cy="21.00" r="0.4"/>
  <circle cx="140.00" cy="21.00" r="0.4"/>
  <circle cx="154.00" cy="21.00" r="0.4"/>
  <circle cx="168.00" cy="21.00" r="0.4"/>
  <circle cx="182.00" cy="21.00" r="0.4"/>
  <circle cx="196.00" cy="21.00" r="0.4"/>
  <circle cx="7.00" cy="35.00" r="0.4"/>
  <circle cx="21.00" cy="35.00" r="0.4"/>
  <circle cx="35.00" cy="35.00" r="0.4"/>
  <circle cx="49.00" cy="35.00" r="0.4"/>
  <circle cx="63.00" cy="35.00" r="0.4"/>
  <circle cx="77.00" cy="35.00" r="0.4"/>
  <circle cx="91.00" cy="35.00" r="0.4"/>
  <circle cx="105.00" cy="35.00" r="0.4"/>
  <circle cx="119.00" cy="35.00" r="0.4"/>
  <circle cx="133.00" cy="35.00" r="0.4"/>
  <circle cx="147.00" cy="35.00" r="0.4"/>
  <circle cx="161.00" cy="35.00" r="0.4"/>
  <circle cx="175.00" cy="35.00" r="0.4"/>
  <circle cx="189.00" cy="35.00" r="0.4"/>
  <circle cx="14.00" cy="49.00" r="0.4"/>
  <circle cx="28.00" cy="49.00" r="0.4"/>
  <circle cx="42.00" cy="49.00" r="0.4"/>
  <circle cx="56.00" cy="49.00" r="0.4"/>
  <circle cx="70.00" cy="49.00" r="0.4"/>
  <circle cx="84.00" cy="49.00" r="0.4"/>
  <circle cx="98.00" cy="49.00" r="0.4"/>
  <circle cx="112.00" cy="49.00" r="0.4"/>
  <circle cx="126.00" cy="49.00" r="0.4"/>
  <circle cx="140.00" cy="49.00" r="0.4"/>
  <circle cx="154.00" cy="49.00" r="0.4"/>
  <circle cx="168.00" cy="49.00" r="0.4"/>
  <circle cx="182.00" cy="49.00" r="0.4"/>
  <circle cx="196.00" cy="49.00" r="0.4"/>
  <circle cx="7.00" cy="63.00" r="0.4"/>
  <circle cx="21.00" cy="63.00" r="0.4"/>
  <circle cx="35.00" cy="63.00" r="0.4"/>
  <circle cx="49.00" cy="63.00" r="0.4"/>
  <circle cx="63.00" cy="63.00" r="0.4"/>
  <circle cx="77.00" cy="63.00" r="0.4"/>
  <circle cx="91.00" cy="63.00" r="0.4"/>
  <circle cx="105.00" cy="63.00" r="0.4"/>
  <circle cx="119.00" cy="63.00" r="0.4"/>
  <circle cx="133.00" cy="63.00" r="0.4"/>
  <circle cx="147.00" cy="63.00" r="0.4"/>
  <circle cx="161.00" cy="63.00" r="0.4"/>
  <circle cx="175.00" cy="63.00" r="0.4"/>
  <circle cx="189.00" cy="63.00" r="0.4"/>
  <circle cx="14.00" cy="77.00" r="0.4"/>
  <circle cx="28.00" cy="77.00" r="0.4"/>
  <circle cx="42.00" cy="77.00" r="0.4"/>
  <circle cx="56.00" cy="77.00" r="0.4"/>
  <circle cx="70.00" cy="77.00" r="0.4"/>
  <circle cx="84.00" cy="77.00" r="0.4"/>
  <circle cx="98.00" cy="77.00" r="0.4"/>
  <circle cx="112.00" cy="77.00" r="0.4"/>
  <circle cx="126.00" cy="77.00" r="0.4"/>
  <circle cx="140.00" cy="77.00" r="0.4"/>
  <circle cx="154.00" cy="77.00" r="0.4"/>
  <circle cx="168.00" cy="77.00" r="0.4"/>
  <circle cx="182.00" cy="77.00" r="0.4"/>
  <circle cx="196.00" cy="77.00" r="0.4"/>
  <circle cx="7.00" cy="91.00" r="0.4"/>
  <circle cx="21.00" cy="91.00" r="0.4"/>
  <circle cx="35.00" cy="91.00" r="0.4"/>
  <circle cx="49.00" cy="91.00" r="0.4"/>
  <circle cx="63.00" cy="91.00" r="0.4"/>
  <circle cx="77.00" cy="91.00" r="0.4"/>
  <circle cx="91.00" cy="91.00" r="0.4"/>
  <circle cx="105.00" cy="91.00" r="0.4"/>
  <circle cx="119.00" cy="91.00" r="0.4"/>
  <circle cx="133.00" cy="91.00" r="0.4"/>
  <circle cx="147.00" cy="91.00" r="0.4"/>
  <circle cx="161.00" cy="91.00" r="0.4"/>
  <circle cx="175.00" cy="91.00" r="0.4"/>
  <circle cx="189.00" cy="91.00" r="0.4"/>
</g>
<text x="6" y="94" font-family="monospace" font-size="9" fill="#222">High-res LiDAR</text>
</svg>
