<!-- Generated by scripts/build_patterns.py from sigint_terrain_bundle/tokens.json. Do not edit by hand. -->
<svg xmlns="http://www.w3.org/2000/svg" width="200" height="100" viewBox="0 0 200 100">
<rect width="200" height="100" fill="#11151a"/>
<rect width="200" height="100" fill="#b1241c" fill-opacity="0.14"/>
<g stroke="#d63a30" stroke-width="1.2">
  <line x1="-100" y1="100" x2="0" y2="0"/>
  <line x1="-94" y1="100" x2="6" y2="0"/>
  <line x1="-88" y1="100" x2="12" y2="0"/>
  <line x1="-82" y1="100" x2="18" y2="0"/>
  <line x1="-76" y1="100" x2="24" y2="0"/>
  <line x1="-70" y1="100" x2="30" y2="0"/>
  <line x1="-64" y1="100" x2="36" y2="0"/>
  <line x1="-58" y1="100" x2="42" y2="0"/>
  <line x1="-52" y1="100" x2="48" y2="0"/>
  <line x1="-46" y1="100" x2="54" y2="0"/>
  <line x1="-40" y1="100" x2="60" y2="0"/>
  <line x1="-34" y1="100" x2="66" y2="0"/>
  <line x1="-28" y1="100" x2="72" y2="0"/>
  <line x1="-22" y1="100" x2="78" y2="0"/>
  <line x1="-16" y1="100" x2="84" y2="0"/>
  <line x1="-10" y1="100" x2="90" y2="0"/>
  <line x1="-4" y1="100" x2="96" y2="0"/>
  <line x1="2" y1="100" x2="102" y2="0"/>
  <line x1="8" y1="100" x2="108" y2="0"/>
  <line x1="14" y1="100" x2="114" y2="0"/>
  <line x1="20" y1="100" x2="120" y2="0"/>
  <line x1="26" y1="100" x2="126" y2="0"/>
  <line x1="32" y1="100" x2="132" y2="0"/>
  <line x1="38" y1="100" x2="138" y2="0"/>
  <line x1="44" y1="100" x2="144" y2="0"/>
  <line x1="50" y1="100" x2="150" y2="0"/>
  <line x1="56" y1="100" x2="156" y2="0"/>
  <line x1="62" y1="100" x2="162" y2="0"/>
  <line x1="68" y1="100" x2="168" y2="0"/>
  <line x1="74" y1="100" x2="174" y2="0"/>
  <line x1="80" y1="100" x2="180" y2="0"/>
  <line x1="86" y1="100" x2="186" y2="0"/>
  <line x1="92" y1="100" x2="192" y2="0"/>
  <line x1="98" y1="100" x2="198" y2="0"/>
  <line x1="104" y1="100" x2="204" y2="0"/>
  <line x1="110" y1="100" x2="210" y2="0"/>
  <line x1="116" y1="100" x2="216" y2="0"/>
  <line x1="122" y1="100" x2="222" y2="0"/>
  <line x1="128" y1="100" x2="228" y2="0"/>
  <line x1="134" y1="100" x2="234" y2="0"/>
  <line x1="140" y1="100" x2="240" y2="0"/>
  <line x1="146" y1="100" x2="246" y2="0"/>
  <line x1="152" y1="100" x2="252" y2="0"/>
  <line x1="158" y1="100" x2="258" y2="0"/>
  <line x1="164" y1="100" x2="264" y2="0"/>
  <line x1="170" y1="100" x2="270" y2="0"/>
  <line x1="176" y1="100" x2="276" y2="0"/>
  <line x1="182" y1="100" x2="282" y2="0"/>
  <line x1="188" y1="100" x2="288" y2="0"/>
  <line x1="194" y1="100" x2="294" y2="0"/>
  <line x1="-100" y1="0" x2="0" y2="100"/>
  <line x1="-94" y1="0" x2="6" y2="100"/>
  <line x1="-88" y1="0" x2="12" y2="100"/>
  <line x1="-82" y1="0" x2="18" y2="100"/>
  <line x1="-76" y1="0" x2="24" y2="100"/>
  <line x1="-70" y1="0" x2="30" y2="100"/>
  <line x1="-64" y1="0" x2="36" y2="100"/>
  <line x1="-58" y1="0" x2="42" y2="100"/>
  <line x1="-52" y1="0" x2="48" y2="100"/>
  <line x1="-46" y1="0" x2="54" y2="100"/>
  <line x1="-40" y1="0" x2="60" y2="100"/>
  <line x1="-34" y1="0" x2="66" y2="100"/>
  <line x1="-28" y1="0" x2="72" y2="100"/>
  <line x1="-22" y1="0" x2="78" y2="100"/>
  <line x1="-16" y1="0" x2="84" y2="100"/>
  <line x1="-10" y1="0" x2="90" y2="100"/>
  <line x1="-4" y1="0" x2="96" y2="100"/>
  <line x1="2" y1="0" x2="102" y2="100"/>
  <line x1="8" y1="0" x2="108" y2="100"/>
  <line x1="14" y1="0" x2="114" y2="100"/>
  <line x1="20" y1="0" x2="120" y2="100"/>
  <line x1="26" y1="0" x2="126" y2="100"/>
  <line x1="32" y1="0" x2="132" y2="100"/>
  <line x1="38" y1="0" x2="138" y2="100"/>
  <line x1="44" y1="0" x2="144" y2="100"/>
  <line x1="50" y1="0" x2="150" y2="100"/>
  <line x1="56" y1="0" x2="156" y2="100"/>
  <line x1="62" y1="0" x2="162" y2="100"/>
  <line x1="68" y1="0" x2="168" y2="100"/>
  <line x1="74" y1="0" x2="174" y2="100"/>
  <line x1="80" y1="0" x2="180" y2="100"/>
  <line x1="86" y1="0" x2="186" y2="100"/>
  <line x1="92" y1="0" x2="192" y2="100"/>
  <line x1="98" y1="0" x2="198" y2="100"/>
  <line x1="104" y1="0" x2="204" y2="100"/>
  <line x1="110" y1="0" x2="210" y2="100"/>
  <line x1="116" y1="0" x2="216" y2="100"/>
  <line x1="122" y1="0" x2="222" y2="100"/>
  <line x1="128" y1="0" x2="228" y2="100"/>
  <line x1="134" y1="0" x2="234" y2="100"/>
  <line x1="140" y1="0" x2="240" y2="100"/>
  <line x1="146" y1="0" x2="246" y2="100"/>
  <line x1="152" y1="0" x2="252" y2="100"/>
  <line x1="158" y1="0" x2="258" y2="100"/>
  <line x1="164" y1="0" x2="264" y2="100"/>
  <line x1="170" y1="0" x2="270" y2="100"/>
  <line x1="176" y1="0" x2="276" y2="100"/>
  <line x1="182" y1="0" x2="282" y2="100"/>
  <line x1="188" y1="0" x2="288" y2="100"/>
  <line x1="194" y1="0" x2="294" y2="100"/>
</g>
<text x="6" y="94" font-family="ui-monospace,Menlo,monospace" font-size="9" fill="#ffd0cb">DENIED</text>
</svg>
