<!-- Generated by scripts/build_patterns.py from sigint_terrain_bundle/tokens.json. Do not edit by hand. -->
<svg xmlns="http://www.w3.org/2000/svg" width="1240" height="720" viewBox="0 0 1240 720">
<rect width="1240" height="720" fill="#0d1014"/>
<text x="24" y="30" font-family="ui-monospace,Menlo,monospace" font-size="11" fill="#76d36a">SIGINT-TERRAIN v1.1 — TEXTURES &amp; ELEVATIONS</text>
<text x="24" y="70" font-family="ui-monospace,Menlo,monospace" font-size="14" fill="#e6e9ec" font-weight="bold">Terrain surface textures</text>
  <rect x="24" y="84" width="116" height="70" fill="#11151a" stroke="#1c2228" stroke-width="0.6"/>
  <g transform="translate(24,84)"><rect width="116" height="70" fill="#1a1f24"/><g stroke="#2a3036" stroke-width="0.5" stroke-opacity="0.7" fill="none"><path d="M -70 70 Q -35.0 30.0 0 0"/><path d="M -56 70 Q -21.0 30.0 14 0"/><path d="M -42 70 Q -7.0 30.0 28 0"/><path d="M -28 70 Q 7.0 30.0 42 0"/><path d="M -14 70 Q 21.0 30.0 56 0"/><path d="M 0 70 Q 35.0 30.0 70 0"/><path d="M 14 70 Q 49.0 30.0 84 0"/><path d="M 28 70 Q 63.0 30.0 98 0"/><path d="M 42 70 Q 77.0 30.0 112 0"/><path d="M 56 70 Q 91.0 30.0 126 0"/><path d="M 70 70 Q 105.0 30.0 140 0"/><path d="M 84 70 Q 119.0 30.0 154 0"/><path d="M 98 70 Q 133.0 30.0 168 0"/><path d="M 112 70 Q 147.0 30.0 182 0"/></g></g>
  <text x="24" y="172" font-family="ui-monospace,Menlo,monospace" font-size="11" fill="#8a939b">hillshade grain</text>
  <rect x="156" y="84" width="116" height="70" fill="#11151a" stroke="#1c2228" stroke-width="0.6"/>
  <g transform="translate(156,84)" stroke="#8a939b" stroke-width="0.7" fill="none" stroke-opacity="0.85"><path d="M 0 -4 Q 34.8 -8 69.6 -4 T 116 -4"/><path d="M 0 6 Q 34.8 2 69.6 6 T 116 6"/><path d="M 0 16 Q 34.8 12 69.6 16 T 116 16"/><path d="M 0 26 Q 34.8 22 69.6 26 T 116 26"/><path d="M 0 36 Q 34.8 32 69.6 36 T 116 36"/><path d="M 0 46 Q 34.8 42 69.6 46 T 116 46"/><path d="M 0 56 Q 34.8 52 69.6 56 T 116 56"/><path d="M 0 66 Q 34.8 62 69.6 66 T 116 66"/></g>
  <text x="156" y="172" font-family="ui-monospace,Menlo,monospace" font-size="11" fill="#8a939b">contour hachure</text>
  <rect x="288" y="84" width="116" height="70" fill="#11151a" stroke="#1c2228" stroke-width="0.6"/>
  <g transform="translate(288,84)" fill="#cfd2c7"><circle cx="3.00" cy="3.00" r="0.9"/><circle cx="9.00" cy="3.00" r="0.9"/><circle cx="15.00" cy="3.00" r="0.9"/><circle cx="21.00" cy="3.00" r="0.9"/><circle cx="27.00" cy="3.00" r="0.9"/><circle cx="33.00" cy="3.00" r="0.9"/><circle cx="39.00" cy="3.00" r="0.9"/><circle cx="45.00" cy="3.00" r="0.9"/><circle cx="51.00" cy="3.00" r="0.9"/><circle cx="57.00" cy="3.00" r="0.9"/><circle cx="63.00" cy="3.00" r="0.9"/><circle cx="69.00" cy="3.00" r="0.9"/><circle cx="75.00" cy="3.00" r="0.9"/><circle cx="81.00" cy="3.00" r="0.9"/><circle cx="87.00" cy="3.00" r="0.9"/><circle cx="93.00" cy="3.00" r="0.9"/><circle cx="99.00" cy="3.00" r="0.9"/><circle cx="105.00" cy="3.00" r="0.9"/><circle cx="111.00" cy="3.00" r="0.9"/><circle cx="6.00" cy="9.00" r="0.9"/><circle cx="12.00" cy="9.00" r="0.9"/><circle cx="18.00" cy="9.00" r="0.9"/><circle cx="24.00" cy="9.00" r="0.9"/><circle cx="30.00" cy="9.00" r="0.9"/><circle cx="36.00" cy="9.00" r="0.9"/><circle cx="42.00" cy="9.00" r="0.9"/><circle cx="48.00" cy="9.00" r="0.9"/><circle cx="54.00" cy="9.00" r="0.9"/><circle cx="60.00" cy="9.00" r="0.9"/><circle cx="66.00" cy="9.00" r="0.9"/><circle cx="72.00" cy="9.00" r="0.9"/><circle cx="78.00" cy="9.00" r="0.9"/><circle cx="84.00" cy="9.00" r="0.9"/><circle cx="90.00" cy="9.00" r="0.9"/><circle cx="96.00" cy="9.00" r="0.9"/><circle cx="102.00" cy="9.00" r="0.9"/><circle cx="108.00" cy="9.00" r="0.9"/><circle cx="114.00" cy="9.00" r="0.9"/><circle cx="3.00" cy="15.00" r="0.9"/><circle cx="9.00" cy="15.00" r="0.9"/><circle cx="15.00" cy="15.00" r="0.9"/><circle cx="21.00" cy="15.00" r="0.9"/><circle cx="27.00" cy="15.00" r="0.9"/><circle cx="33.00" cy="15.00" r="0.9"/><circle cx="39.00" cy="15.00" r="0.9"/><circle cx="45.00" cy="15.00" r="0.9"/><circle cx="51.00" cy="15.00" r="0.9"/><circle cx="57.00" cy="15.00" r="0.9"/><circle cx="63.00" cy="15.00" r="0.9"/><circle cx="69.00" cy="15.00" r="0.9"/><circle cx="75.00" cy="15.00" r="0.9"/><circle cx="81.00" cy="15.00" r="0.9"/><circle cx="87.00" cy="15.00" r="0.9"/><circle cx="93.00" cy="15.00" r="0.9"/><circle cx="99.00" cy="15.00" r="0.9"/><circle cx="105.00" cy="15.00" r="0.9"/><circle cx="111.00" cy="15.00" r="0.9"/><circle cx="6.00" cy="21.00" r="0.9"/><circle cx="12.00" cy="21.00" r="0.9"/><circle cx="18.00" cy="21.00" r="0.9"/><circle cx="24.00" cy="21.00" r="0.9"/><circle cx="30.00" cy="21.00" r="0.9"/><circle cx="36.00" cy="21.00" r="0.9"/><circle cx="42.00" cy="21.00" r="0.9"/><circle cx="48.00" cy="21.00" r="0.9"/><circle cx="54.00" cy="21.00" r="0.9"/><circle cx="60.00" cy="21.00" r="0.9"/><circle cx="66.00" cy="21.00" r="0.9"/><circle cx="72.00" cy="21.00" r="0.9"/><circle cx="78.00" cy="21.00" r="0.9"/><circle cx="84.00" cy="21.00" r="0.9"/><circle cx="90.00" cy="21.00" r="0.9"/><circle cx="96.00" cy="21.00" r="0.9"/><circle cx="102.00" cy="21.00" r="0.9"/><circle cx="108.00" cy="21.00" r="0.9"/><circle cx="114.00" cy="21.00" r="0.9"/><circle cx="3.00" cy="27.00" r="0.9"/><circle cx="9.00" cy="27.00" r="0.9"/><circle cx="15.00" cy="27.00" r="0.9"/><circle cx="21.00" cy="27.00" r="0.9"/><circle cx="27.00" cy="27.00" r="0.9"/><circle cx="33.00" cy="27.00" r="0.9"/><circle cx="39.00" cy="27.00" r="0.9"/><circle cx="45.00" cy="27.00" r="0.9"/><circle cx="51.00" cy="27.00" r="0.9"/><circle cx="57.00" cy="27.00" r="0.9"/><circle cx="63.00" cy="27.00" r="0.9"/><circle cx="69.00" cy="27.00" r="0.9"/><circle cx="75.00" cy="27.00" r="0.9"/><circle cx="81.00" cy="27.00" r="0.9"/><circle cx="87.00" cy="27.00" r="0.9"/><circle cx="93.00" cy="27.00" r="0.9"/><circle cx="99.00" cy="27.00" r="0.9"/><circle cx="105.00" cy="27.00" r="0.9"/><circle cx="111.00" cy="27.00" r="0.9"/><circle cx="6.00" cy="33.00" r="0.9"/><circle cx="12.00" cy="33.00" r="0.9"/><circle cx="18.00" cy="33.00" r="0.9"/><circle cx="24.00" cy="33.00" r="0.9"/><circle cx="30.00" cy="33.00" r="0.9"/><circle cx="36.00" cy="33.00" r="0.9"/><circle cx="42.00" cy="33.00" r="0.9"/><circle cx="48.00" cy="33.00" r="0.9"/><circle cx="54.00" cy="33.00" r="0.9"/><circle cx="60.00" cy="33.00" r="0.9"/><circle cx="66.00" cy="33.00" r="0.9"/><circle cx="72.00" cy="33.00" r="0.9"/><circle cx="78.00" cy="33.00" r="0.9"/><circle cx="84.00" cy="33.00" r="0.9"/><circle cx="90.00" cy="33.00" r="0.9"/><circle cx="96.00" cy="33.00" r="0.9"/><circle cx="102.00" cy="33.00" r="0.9"/><circle cx="108.00" cy="33.00" r="0.9"/><circle cx="114.00" cy="33.00" r="0.9"/><circle cx="3.00" cy="39.00" r="0.9"/><circle cx="9.00" cy="39.00" r="0.9"/><circle cx="15.00" cy="39.00" r="0.9"/><circle cx="21.00" cy="39.00" r="0.9"/><circle cx="27.00" cy="39.00" r="0.9"/><circle cx="33.00" cy="39.00" r="0.9"/><circle cx="39.00" cy="39.00" r="0.9"/><circle cx="45.00" cy="39.00" r="0.9"/><circle cx="51.00" cy="39.00" r="0.9"/><circle cx="57.00" cy="39.00" r="0.9"/><circle cx="63.00" cy="39.00" r="0.9"/><circle cx="69.00" cy="39.00" r="0.9"/><circle cx="75.00" cy="39.00" r="0.9"/><circle cx="81.00" cy="39.00" r="0.9"/><circle cx="87.00" cy="39.00" r="0.9"/><circle cx="93.00" cy="39.00" r="0.9"/><circle cx="99.00" cy="39.00" r="0.9"/><circle cx="105.00" cy="39.00" r="0.9"/><circle cx="111.00" cy="39.00" r="0.9"/><circle cx="6.00" cy="45.00" r="0.9"/><circle cx="12.00" cy="45.00" r="0.9"/><circle cx="18.00" cy="45.00" r="0.9"/><circle cx="24.00" cy="45.00" r="0.9"/><circle cx="30.00" cy="45.00" r="0.9"/><circle cx="36.00" cy="45.00" r="0.9"/><circle cx="42.00" cy="45.00" r="0.9"/><circle cx="48.00" cy="45.00" r="0.9"/><circle cx="54.00" cy="45.00" r="0.9"/><circle cx="60.00" cy="45.00" r="0.9"/><circle cx="66.00" cy="45.00" r="0.9"/><circle cx="72.00" cy="45.00" r="0.9"/><circle cx="78.00" cy="45.00" r="0.9"/><circle cx="84.00" cy="45.00" r="0.9"/><circle cx="90.00" cy="45.00" r="0.9"/><circle cx="96.00" cy="45.00" r="0.9"/><circle cx="102.00" cy="45.00" r="0.9"/><circle cx="108.00" cy="45.00" r="0.9"/><circle cx="114.00" cy="45.00" r="0.9"/><circle cx="3.00" cy="51.00" r="0.9"/><circle cx="9.00" cy="51.00" r="0.9"/><circle cx="15.00" cy="51.00" r="0.9"/><circle cx="21.00" cy="51.00" r="0.9"/><circle cx="27.00" cy="51.00" r="0.9"/><circle cx="33.00" cy="51.00" r="0.9"/><circle cx="39.00" cy="51.00" r="0.9"/><circle cx="45.00" cy="51.00" r="0.9"/><circle cx="51.00" cy="51.00" r="0.9"/><circle cx="57.00" cy="51.00" r="0.9"/><circle cx="63.00" cy="51.00" r="0.9"/><circle cx="69.00" cy="51.00" r="0.9"/><circle cx="75.00" cy="51.00" r="0.9"/><circle cx="81.00" cy="51.00" r="0.9"/><circle cx="87.00" cy="51.00" r="0.9"/><circle cx="93.00" cy="51.00" r="0.9"/><circle cx="99.00" cy="51.00" r="0.9"/><circle cx="105.00" cy="51.00" r="0.9"/><circle cx="111.00" cy="51.00" r="0.9"/><circle cx="6.00" cy="57.00" r="0.9"/><circle cx="12.00" cy="57.00" r="0.9"/><circle cx="18.00" cy="57.00" r="0.9"/><circle cx="24.00" cy="57.00" r="0.9"/><circle cx="30.00" cy="57.00" r="0.9"/><circle cx="36.00" cy="57.00" r="0.9"/><circle cx="42.00" cy="57.00" r="0.9"/><circle cx="48.00" cy="57.00" r="0.9"/><circle cx="54.00" cy="57.00" r="0.9"/><circle cx="60.00" cy="57.00" r="0.9"/><circle cx="66.00" cy="57.00" r="0.9"/><circle cx="72.00" cy="57.00" r="0.9"/><circle cx="78.00" cy="57.00" r="0.9"/><circle cx="84.00" cy="57.00" r="0.9"/><circle cx="90.00" cy="57.00" r="0.9"/><circle cx="96.00" cy="57.00" r="0.9"/><circle cx="102.00" cy="57.00" r="0.9"/><circle cx="108.00" cy="57.00" r="0.9"/><circle cx="114.00" cy="57.00" r="0.9"/><circle cx="3.00" cy="63.00" r="0.9"/><circle cx="9.00" cy="63.00" r="0.9"/><circle cx="15.00" cy="63.00" r="0.9"/><circle cx="21.00" cy="63.00" r="0.9"/><circle cx="27.00" cy="63.00" r="0.9"/><circle cx="33.00" cy="63.00" r="0.9"/><circle cx="39.00" cy="63.00" r="0.9"/><circle cx="45.00" cy="63.00" r="0.9"/><circle cx="51.00" cy="63.00" r="0.9"/><circle cx="57.00" cy="63.00" r="0.9"/><circle cx="63.00" cy="63.00" r="0.9"/><circle cx="69.00" cy="63.00" r="0.9"/><circle cx="75.00" cy="63.00" r="0.9"/><circle cx="81.00" cy="63.00" r="0.9"/><circle cx="87.00" cy="63.00" r="0.9"/><circle cx="93.00" cy="63.00" r="0.9"/><circle cx="99.00" cy="63.00" r="0.9"/><circle cx="105.00" cy="63.00" r="0.9"/><circle cx="111.00" cy="63.00" r="0.9"/><circle cx="6.00" cy="69.00" r="0.9"/><circle cx="12.00" cy="69.00" r="0.9"/><circle cx="18.00" cy="69.00" r="0.9"/><circle cx="24.00" cy="69.00" r="0.9"/><circle cx="30.00" cy="69.00" r="0.9"/><circle cx="36.00" cy="69.00" r="0.9"/><circle cx="42.00" cy="69.00" r="0.9"/><circle cx="48.00" cy="69.00" r="0.9"/><circle cx="54.00" cy="69.00" r="0.9"/><circle cx="60.00" cy="69.00" r="0.9"/><circle cx="66.00" cy="69.00" r="0.9"/><circle cx="72.00" cy="69.00" r="0.9"/><circle cx="78.00" cy="69.00" r="0.9"/><circle cx="84.00" cy="69.00" r="0.9"/><circle cx="90.00" cy="69.00" r="0.9"/><circle cx="96.00" cy="69.00" r="0.9"/><circle cx="102.00" cy="69.00" r="0.9"/><circle cx="108.00" cy="69.00" r="0.9"/><circle cx="114.00" cy="69.00" r="0.9"/></g>
  <text x="288" y="172" font-family="ui-monospace,Menlo,monospace" font-size="11" fill="#8a939b">stipple - low conf</text>
  <rect x="420" y="84" width="116" height="70" fill="#11151a" stroke="#1c2228" stroke-width="0.6"/>
  <g transform="translate(420,84)" fill="#cfd2c7"><circle cx="7.00" cy="7.00" r="0.4"/><circle cx="21.00" cy="7.00" r="0.4"/><circle cx="35.00" cy="7.00" r="0.4"/><circle cx="49.00" cy="7.00" r="0.4"/><circle cx="63.00" cy="7.00" r="0.4"/><circle cx="77.00" cy="7.00" r="0.4"/><circle cx="91.00" cy="7.00" r="0.4"/><circle cx="105.00" cy="7.00" r="0.4"/><circle cx="14.00" cy="21.00" r="0.4"/><circle cx="28.00" cy="21.00" r="0.4"/><circle cx="42.00" cy="21.00" r="0.4"/><circle cx="56.00" cy="21.00" r="0.4"/><circle cx="70.00" cy="21.00" r="0.4"/><circle cx="84.00" cy="21.00" r="0.4"/><circle cx="98.00" cy="21.00" r="0.4"/><circle cx="112.00" cy="21.00" r="0.4"/><circle cx="7.00" cy="35.00" r="0.4"/><circle cx="21.00" cy="35.00" r="0.4"/><circle cx="35.00" cy="35.00" r="0.4"/><circle cx="49.00" cy="35.00" r="0.4"/><circle cx="63.00" cy="35.00" r="0.4"/><circle cx="77.00" cy="35.00" r="0.4"/><circle cx="91.00" cy="35.00" r="0.4"/><circle cx="105.00" cy="35.00" r="0.4"/><circle cx="14.00" cy="49.00" r="0.4"/><circle cx="28.00" cy="49.00" r="0.4"/><circle cx="42.00" cy="49.00" r="0.4"/><circle cx="56.00" cy="49.00" r="0.4"/><circle cx="70.00" cy="49.00" r="0.4"/><circle cx="84.00" cy="49.00" r="0.4"/><circle cx="98.00" cy="49.00" r="0.4"/><circle cx="112.00" cy="49.00" r="0.4"/><circle cx="7.00" cy="63.00" r="0.4"/><circle cx="21.00" cy="63.00" r="0.4"/><circle cx="35.00" cy="63.00" r="0.4"/><circle cx="49.00" cy="63.00" r="0.4"/><circle cx="63.00" cy="63.00" r="0.4"/><circle cx="77.00" cy="63.00" r="0.4"/><circle cx="91.00" cy="63.00" r="0.4"/><circle cx="105.00" cy="63.00" r="0.4"/></g>
  <text x="420" y="172" font-family="ui-monospace,Menlo,monospace" font-size="11" fill="#8a939b">stipple - high conf</text>
  <rect x="552" y="84" width="116" height="70" fill="#11151a" stroke="#1c2228" stroke-width="0.6"/>
  <g transform="translate(552,84)" stroke="#9bd1ff" stroke-width="1" stroke-opacity="0.7"><line x1="0" y1="0" x2="116" y2="0"/><line x1="0" y1="4" x2="116" y2="4"/><line x1="0" y1="8" x2="116" y2="8"/><line x1="0" y1="12" x2="116" y2="12"/><line x1="0" y1="16" x2="116" y2="16"/><line x1="0" y1="20" x2="116" y2="20"/><line x1="0" y1="24" x2="116" y2="24"/><line x1="0" y1="28" x2="116" y2="28"/><line x1="0" y1="32" x2="116" y2="32"/><line x1="0" y1="36" x2="116" y2="36"/><line x1="0" y1="40" x2="116" y2="40"/><line x1="0" y1="44" x2="116" y2="44"/><line x1="0" y1="48" x2="116" y2="48"/><line x1="0" y1="52" x2="116" y2="52"/><line x1="0" y1="56" x2="116" y2="56"/><line x1="0" y1="60" x2="116" y2="60"/><line x1="0" y1="64" x2="116" y2="64"/><line x1="0" y1="68" x2="116" y2="68"/></g>
  <text x="552" y="172" font-family="ui-monospace,Menlo,monospace" font-size="11" fill="#8a939b">scan lines</text>
  <rect x="684" y="84" width="116" height="70" fill="#11151a" stroke="#1c2228" stroke-width="0.6"/>
  <g transform="translate(684,84)"><rect width="116" height="70" fill="#b1241c" fill-opacity="0.14"/><g stroke="#d63a30" stroke-width="1.2"><line x1="-70" y1="70" x2="0" y2="0"/><line x1="-64" y1="70" x2="6" y2="0"/><line x1="-58" y1="70" x2="12" y2="0"/><line x1="-52" y1="70" x2="18" y2="0"/><line x1="-46" y1="70" x2="24" y2="0"/><line x1="-40" y1="70" x2="30" y2="0"/><line x1="-34" y1="70" x2="36" y2="0"/><line x1="-28" y1="70" x2="42" y2="0"/><line x1="-22" y1="70" x2="48" y2="0"/><line x1="-16" y1="70" x2="54" y2="0"/><line x1="-10" y1="70" x2="60" y2="0"/><line x1="-4" y1="70" x2="66" y2="0"/><line x1="2" y1="70" x2="72" y2="0"/><line x1="8" y1="70" x2="78" y2="0"/><line x1="14" y1="70" x2="84" y2="0"/><line x1="20" y1="70" x2="90" y2="0"/><line x1="26" y1="70" x2="96" y2="0"/><line x1="32" y1="70" x2="102" y2="0"/><line x1="38" y1="70" x2="108" y2="0"/><line x1="44" y1="70" x2="114" y2="0"/><line x1="50" y1="70" x2="120" y2="0"/><line x1="56" y1="70" x2="126" y2="0"/><line x1="62" y1="70" x2="132" y2="0"/><line x1="68" y1="70" x2="138" y2="0"/><line x1="74" y1="70" x2="144" y2="0"/><line x1="80" y1="70" x2="150" y2="0"/><line x1="86" y1="70" x2="156" y2="0"/><line x1="92" y1="70" x2="162" y2="0"/><line x1="98" y1="70" x2="168" y2="0"/><line x1="104" y1="70" x2="174" y2="0"/><line x1="110" y1="70" x2="180" y2="0"/><line x1="-70" y1="0" x2="0" y2="70"/><line x1="-64" y1="0" x2="6" y2="70"/><line x1="-58" y1="0" x2="12" y2="70"/><line x1="-52" y1="0" x2="18" y2="70"/><line x1="-46" y1="0" x2="24" y2="70"/><line x1="-40" y1="0" x2="30" y2="70"/><line x1="-34" y1="0" x2="36" y2="70"/><line x1="-28" y1="0" x2="42" y2="70"/><line x1="-22" y1="0" x2="48" y2="70"/><line x1="-16" y1="0" x2="54" y2="70"/><line x1="-10" y1="0" x2="60" y2="70"/><line x1="-4" y1="0" x2="66" y2="70"/><line x1="2" y1="0" x2="72" y2="70"/><line x1="8" y1="0" x2="78" y2="70"/><line x1="14" y1="0" x2="84" y2="70"/><line x1="20" y1="0" x2="90" y2="70"/><line x1="26" y1="0" x2="96" y2="70"/><line x1="32" y1="0" x2="102" y2="70"/><line x1="38" y1="0" x2="108" y2="70"/><line x1="44" y1="0" x2="114" y2="70"/><line x1="50" y1="0" x2="120" y2="70"/><line x1="56" y1="0" x2="126" y2="70"/><line x1="62" y1="0" x2="132" y2="70"/><line x1="68" y1="0" x2="138" y2="70"/><line x1="74" y1="0" x2="144" y2="70"/><line x1="80" y1="0" x2="150" y2="70"/><line x1="86" y1="0" x2="156" y2="70"/><line x1="92" y1="0" x2="162" y2="70"/><line x1="98" y1="0" x2="168" y2="70"/><line x1="104" y1="0" x2="174" y2="70"/><line x1="110" y1="0" x2="180" y2="70"/></g></g>
  <text x="684" y="172" font-family="ui-monospace,Menlo,monospace" font-size="11" fill="#8a939b">denied zone</text>
<text x="660" y="70" font-family="ui-monospace,Menlo,monospace" font-size="14" fill="#e6e9ec" font-weight="bold">Data confidence / uncertainty wash</text>
  <rect x="660" y="84" width="100" height="70" fill="#11151a"/>
  <rect x="660" y="84" width="100" height="70" fill="#1f3a2f" fill-opacity="0.65"/>
  <g transform="translate(660,84)" stroke="#1a3a2a" stroke-width="0.5" stroke-opacity="0.7"><line x1="0" y1="0" x2="0" y2="70"/><line x1="10" y1="0" x2="10" y2="70"/><line x1="20" y1="0" x2="20" y2="70"/><line x1="30" y1="0" x2="30" y2="70"/><line x1="40" y1="0" x2="40" y2="70"/><line x1="50" y1="0" x2="50" y2="70"/><line x1="60" y1="0" x2="60" y2="70"/><line x1="70" y1="0" x2="70" y2="70"/><line x1="80" y1="0" x2="80" y2="70"/><line x1="90" y1="0" x2="90" y2="70"/><line x1="0" y1="0" x2="100" y2="0"/><line x1="0" y1="10" x2="100" y2="10"/><line x1="0" y1="20" x2="100" y2="20"/><line x1="0" y1="30" x2="100" y2="30"/><line x1="0" y1="40" x2="100" y2="40"/><line x1="0" y1="50" x2="100" y2="50"/><line x1="0" y1="60" x2="100" y2="60"/></g>
  <text x="660" y="172" font-family="ui-monospace,Menlo,monospace" font-size="11" fill="#8a939b">CURRENT <30m</text>
  <rect x="774" y="84" width="100" height="70" fill="#11151a"/>
  <rect x="774" y="84" width="100" height="70" fill="#3a4a2c" fill-opacity="0.7"/>
  <g transform="translate(774,84)" stroke="#cfb27a" stroke-width="0.7" stroke-opacity="0.55" fill="none"><path d="M 0 8 L 0 8.00 L 8 10.00 L 16 7.88 L 24 6.01 L 32 8.23 L 40 9.98 L 48 7.65 L 56 6.04 L 64 8.46 L 72 9.93 L 80 7.42 L 88 6.10 L 96 8.69"/><path d="M 0 20 L 0 20.00 L 8 22.00 L 16 19.88 L 24 18.01 L 32 20.23 L 40 21.98 L 48 19.65 L 56 18.04 L 64 20.46 L 72 21.93 L 80 19.42 L 88 18.10 L 96 20.69"/><path d="M 0 32 L 0 32.00 L 8 34.00 L 16 31.88 L 24 30.01 L 32 32.23 L 40 33.98 L 48 31.65 L 56 30.04 L 64 32.46 L 72 33.93 L 80 31.42 L 88 30.10 L 96 32.69"/><path d="M 0 44 L 0 44.00 L 8 46.00 L 16 43.88 L 24 42.01 L 32 44.23 L 40 45.98 L 48 43.65 L 56 42.04 L 64 44.46 L 72 45.93 L 80 43.42 L 88 42.10 L 96 44.69"/><path d="M 0 56 L 0 56.00 L 8 58.00 L 16 55.88 L 24 54.01 L 32 56.23 L 40 57.98 L 48 55.65 L 56 54.04 L 64 56.46 L 72 57.93 L 80 55.42 L 88 54.10 L 96 56.69"/><path d="M 0 68 L 0 68.00 L 8 70.00 L 16 67.88 L 24 66.01 L 32 68.23 L 40 69.98 L 48 67.65 L 56 66.04 L 64 68.46 L 72 69.93 L 80 67.42 L 88 66.10 L 96 68.69"/></g>
  <text x="774" y="172" font-family="ui-monospace,Menlo,monospace" font-size="11" fill="#8a939b">RECENT 30m-2h</text>
  <rect x="888" y="84" width="100" height="70" fill="#11151a"/>
  <rect x="888" y="84" width="100" height="70" fill="#5a4a22" fill-opacity="0.78"/>
  <g transform="translate(888,84)" stroke="#cfb27a" stroke-width="0.7" stroke-opacity="0.55" fill="none"><path d="M 0 8 L 0 8.00 L 8 12.00 L 16 7.77 L 24 4.02 L 32 8.47 L 40 11.96 L 48 7.30 L 56 4.08 L 64 8.93 L 72 11.86 L 80 6.85 L 88 4.20 L 96 9.37"/><path d="M 0 20 L 0 20.00 L 8 24.00 L 16 19.77 L 24 16.02 L 32 20.47 L 40 23.96 L 48 19.30 L 56 16.08 L 64 20.93 L 72 23.86 L 80 18.85 L 88 16.20 L 96 21.37"/><path d="M 0 32 L 0 32.00 L 8 36.00 L 16 31.77 L 24 28.02 L 32 32.47 L 40 35.96 L 48 31.30 L 56 28.08 L 64 32.93 L 72 35.86 L 80 30.85 L 88 28.20 L 96 33.37"/><path d="M 0 44 L 0 44.00 L 8 48.00 L 16 43.77 L 24 40.02 L 32 44.47 L 40 47.96 L 48 43.30 L 56 40.08 L 64 44.93 L 72 47.86 L 80 42.85 L 88 40.20 L 96 45.37"/><path d="M 0 56 L 0 56.00 L 8 60.00 L 16 55.77 L 24 52.02 L 32 56.47 L 40 59.96 L 48 55.30 L 56 52.08 L 64 56.93 L 72 59.86 L 80 54.85 L 88 52.20 L 96 57.37"/><path d="M 0 68 L 0 68.00 L 8 72.00 L 16 67.77 L 24 64.02 L 32 68.47 L 40 71.96 L 48 67.30 L 56 64.08 L 64 68.93 L 72 71.86 L 80 66.85 L 88 64.20 L 96 69.37"/></g>
  <text x="888" y="172" font-family="ui-monospace,Menlo,monospace" font-size="11" fill="#8a939b">AGING 2-6h</text>
  <rect x="1002" y="84" width="100" height="70" fill="#11151a"/>
  <rect x="1002" y="84" width="100" height="70" fill="#5a2820" fill-opacity="0.82"/>
  <g transform="translate(1002,84)" stroke="#e8a3a0" stroke-width="0.6" stroke-opacity="0.55"><line x1="2" y1="6" x2="5" y2="6"/><line x1="8" y1="6" x2="11" y2="6"/><line x1="14" y1="6" x2="17" y2="6"/><line x1="20" y1="6" x2="23" y2="6"/><line x1="26" y1="6" x2="29" y2="6"/><line x1="32" y1="6" x2="35" y2="6"/><line x1="38" y1="6" x2="41" y2="6"/><line x1="44" y1="6" x2="47" y2="6"/><line x1="50" y1="6" x2="53" y2="6"/><line x1="56" y1="6" x2="59" y2="6"/><line x1="62" y1="6" x2="65" y2="6"/><line x1="68" y1="6" x2="71" y2="6"/><line x1="74" y1="6" x2="77" y2="6"/><line x1="80" y1="6" x2="83" y2="6"/><line x1="86" y1="6" x2="89" y2="6"/><line x1="92" y1="6" x2="95" y2="6"/><line x1="98" y1="6" x2="101" y2="6"/><line x1="2" y1="12" x2="5" y2="12"/><line x1="8" y1="12" x2="11" y2="12"/><line x1="14" y1="12" x2="17" y2="12"/><line x1="20" y1="12" x2="23" y2="12"/><line x1="26" y1="12" x2="29" y2="12"/><line x1="32" y1="12" x2="35" y2="12"/><line x1="38" y1="12" x2="41" y2="12"/><line x1="44" y1="12" x2="47" y2="12"/><line x1="50" y1="12" x2="53" y2="12"/><line x1="56" y1="12" x2="59" y2="12"/><line x1="62" y1="12" x2="65" y2="12"/><line x1="68" y1="12" x2="71" y2="12"/><line x1="74" y1="12" x2="77" y2="12"/><line x1="80" y1="12" x2="83" y2="12"/><line x1="86" y1="12" x2="89" y2="12"/><line x1="92" y1="12" x2="95" y2="12"/><line x1="98" y1="12" x2="101" y2="12"/><line x1="2" y1="18" x2="5" y2="18"/><line x1="8" y1="18" x2="11" y2="18"/><line x1="14" y1="18" x2="17" y2="18"/><line x1="20" y1="18" x2="23" y2="18"/><line x1="26" y1="18" x2="29" y2="18"/><line x1="32" y1="18" x2="35" y2="18"/><line x1="38" y1="18" x2="41" y2="18"/><line x1="44" y1="18" x2="47" y2="18"/><line x1="50" y1="18" x2="53" y2="18"/><line x1="56" y1="18" x2="59" y2="18"/><line x1="62" y1="18" x2="65" y2="18"/><line x1="68" y1="18" x2="71" y2="18"/><line x1="74" y1="18" x2="77" y2="18"/><line x1="80" y1="18" x2="83" y2="18"/><line x1="86" y1="18" x2="89" y2="18"/><line x1="92" y1="18" x2="95" y2="18"/><line x1="98" y1="18" x2="101" y2="18"/><line x1="2" y1="24" x2="5" y2="24"/><line x1="8" y1="24" x2="11" y2="24"/><line x1="14" y1="24" x2="17" y2="24"/><line x1="20" y1="24" x2="23" y2="24"/><line x1="26" y1="24" x2="29" y2="24"/><line x1="32" y1="24" x2="35" y2="24"/><line x1="38" y1="24" x2="41" y2="24"/><line x1="44" y1="24" x2="47" y2="24"/><line x1="50" y1="24" x2="53" y2="24"/><line x1="56" y1="24" x2="59" y2="24"/><line x1="62" y1="24" x2="65" y2="24"/><line x1="68" y1="24" x2="71" y2="24"/><line x1="74" y1="24" x2="77" y2="24"/><line x1="80" y1="24" x2="83" y2="24"/><line x1="86" y1="24" x2="89" y2="24"/><line x1="92" y1="24" x2="95" y2="24"/><line x1="98" y1="24" x2="101" y2="24"/><line x1="2" y1="30" x2="5" y2="30"/><line x1="8" y1="30" x2="11" y2="30"/><line x1="14" y1="30" x2="17" y2="30"/><line x1="20" y1="30" x2="23" y2="30"/><line x1="26" y1="30" x2="29" y2="30"/><line x1="32" y1="30" x2="35" y2="30"/><line x1="38" y1="30" x2="41" y2="30"/><line x1="44" y1="30" x2="47" y2="30"/><line x1="50" y1="30" x2="53" y2="30"/><line x1="56" y1="30" x2="59" y2="30"/><line x1="62" y1="30" x2="65" y2="30"/><line x1="68" y1="30" x2="71" y2="30"/><line x1="74" y1="30" x2="77" y2="30"/><line x1="80" y1="30" x2="83" y2="30"/><line x1="86" y1="30" x2="89" y2="30"/><line x1="92" y1="30" x2="95" y2="30"/><line x1="98" y1="30" x2="101" y2="30"/><line x1="2" y1="36" x2="5" y2="36"/><line x1="8" y1="36" x2="11" y2="36"/><line x1="14" y1="36" x2="17" y2="36"/><line x1="20" y1="36" x2="23" y2="36"/><line x1="26" y1="36" x2="29" y2="36"/><line x1="32" y1="36" x2="35" y2="36"/><line x1="38" y1="36" x2="41" y2="36"/><line x1="44" y1="36" x2="47" y2="36"/><line x1="50" y1="36" x2="53" y2="36"/><line x1="56" y1="36" x2="59" y2="36"/><line x1="62" y1="36" x2="65" y2="36"/><line x1="68" y1="36" x2="71" y2="36"/><line x1="74" y1="36" x2="77" y2="36"/><line x1="80" y1="36" x2="83" y2="36"/><line x1="86" y1="36" x2="89" y2="36"/><line x1="92" y1="36" x2="95" y2="36"/><line x1="98" y1="36" x2="101" y2="36"/><line x1="2" y1="42" x2="5" y2="42"/><line x1="8" y1="42" x2="11" y2="42"/><line x1="14" y1="42" x2="17" y2="42"/><line x1="20" y1="42" x2="23" y2="42"/><line x1="26" y1="42" x2="29" y2="42"/><line x1="32" y1="42" x2="35" y2="42"/><line x1="38" y1="42" x2="41" y2="42"/><line x1="44" y1="42" x2="47" y2="42"/><line x1="50" y1="42" x2="53" y2="42"/><line x1="56" y1="42" x2="59" y2="42"/><line x1="62" y1="42" x2="65" y2="42"/><line x1="68" y1="42" x2="71" y2="42"/><line x1="74" y1="42" x2="77" y2="42"/><line x1="80" y1="42" x2="83" y2="42"/><line x1="86" y1="42" x2="89" y2="42"/><line x1="92" y1="42" x2="95" y2="42"/><line x1="98" y1="42" x2="101" y2="42"/><line x1="2" y1="48" x2="5" y2="48"/><line x1="8" y1="48" x2="11" y2="48"/><line x1="14" y1="48" x2="17" y2="48"/><line x1="20" y1="48" x2="23" y2="48"/><line x1="26" y1="48" x2="29" y2="48"/><line x1="32" y1="48" x2="35" y2="48"/><line x1="38" y1="48" x2="41" y2="48"/><line x1="44" y1="48" x2="47" y2="48"/><line x1="50" y1="48" x2="53" y2="48"/><line x1="56" y1="48" x2="59" y2="48"/><line x1="62" y1="48" x2="65" y2="48"/><line x1="68" y1="48" x2="71" y2="48"/><line x1="74" y1="48" x2="77" y2="48"/><line x1="80" y1="48" x2="83" y2="48"/><line x1="86" y1="48" x2="89" y2="48"/><line x1="92" y1="48" x2="95" y2="48"/><line x1="98" y1="48" x2="101" y2="48"/><line x1="2" y1="54" x2="5" y2="54"/><line x1="8" y1="54" x2="11" y2="54"/><line x1="14" y1="54" x2="17" y2="54"/><line x1="20" y1="54" x2="23" y2="54"/><line x1="26" y1="54" x2="29" y2="54"/><line x1="32" y1="54" x2="35" y2="54"/><line x1="38" y1="54" x2="41" y2="54"/><line x1="44" y1="54" x2="47" y2="54"/><line x1="50" y1="54" x2="53" y2="54"/><line x1="56" y1="54" x2="59" y2="54"/><line x1="62" y1="54" x2="65" y2="54"/><line x1="68" y1="54" x2="71" y2="54"/><line x1="74" y1="54" x2="77" y2="54"/><line x1="80" y1="54" x2="83" y2="54"/><line x1="86" y1="54" x2="89" y2="54"/><line x1="92" y1="54" x2="95" y2="54"/><line x1="98" y1="54" x2="101" y2="54"/><line x1="2" y1="60" x2="5" y2="60"/><line x1="8" y1="60" x2="11" y2="60"/><line x1="14" y1="60" x2="17" y2="60"/><line x1="20" y1="60" x2="23" y2="60"/><line x1="26" y1="60" x2="29" y2="60"/><line x1="32" y1="60" x2="35" y2="60"/><line x1="38" y1="60" x2="41" y2="60"/><line x1="44" y1="60" x2="47" y2="60"/><line x1="50" y1="60" x2="53" y2="60"/><line x1="56" y1="60" x2="59" y2="60"/><line x1="62" y1="60" x2="65" y2="60"/><line x1="68" y1="60" x2="71" y2="60"/><line x1="74" y1="60" x2="77" y2="60"/><line x1="80" y1="60" x2="83" y2="60"/><line x1="86" y1="60" x2="89" y2="60"/><line x1="92" y1="60" x2="95" y2="60"/><line x1="98" y1="60" x2="101" y2="60"/><line x1="2" y1="66" x2="5" y2="66"/><line x1="8" y1="66" x2="11" y2="66"/><line x1="14" y1="66" x2="17" y2="66"/><line x1="20" y1="66" x2="23" y2="66"/><line x1="26" y1="66" x2="29" y2="66"/><line x1="32" y1="66" x2="35" y2="66"/><line x1="38" y1="66" x2="41" y2="66"/><line x1="44" y1="66" x2="47" y2="66"/><line x1="50" y1="66" x2="53" y2="66"/><line x1="56" y1="66" x2="59" y2="66"/><line x1="62" y1="66" x2="65" y2="66"/><line x1="68" y1="66" x2="71" y2="66"/><line x1="74" y1="66" x2="77" y2="66"/><line x1="80" y1="66" x2="83" y2="66"/><line x1="86" y1="66" x2="89" y2="66"/><line x1="92" y1="66" x2="95" y2="66"/><line x1="98" y1="66" x2="101" y2="66"/></g>
  <text x="1002" y="172" font-family="ui-monospace,Menlo,monospace" font-size="11" fill="#8a939b">STALE 6-24h</text>
  <rect x="1116" y="84" width="100" height="70" fill="#11151a"/>
  <rect x="1116" y="84" width="100" height="70" fill="#3a1410" fill-opacity="0.88"/>
  <g transform="translate(1116,84)" stroke="#e8a3a0" stroke-width="0.7" stroke-opacity="0.55" fill="none"><path d="M 0 8 L 8 4 L 16 8"/><path d="M 16 8 L 24 4 L 32 8"/><path d="M 32 8 L 40 4 L 48 8"/><path d="M 48 8 L 56 4 L 64 8"/><path d="M 64 8 L 72 4 L 80 8"/><path d="M 80 8 L 88 4 L 96 8"/><path d="M 96 8 L 104 4 L 112 8"/><path d="M 0 18 L 8 14 L 16 18"/><path d="M 16 18 L 24 14 L 32 18"/><path d="M 32 18 L 40 14 L 48 18"/><path d="M 48 18 L 56 14 L 64 18"/><path d="M 64 18 L 72 14 L 80 18"/><path d="M 80 18 L 88 14 L 96 18"/><path d="M 96 18 L 104 14 L 112 18"/><path d="M 0 28 L 8 24 L 16 28"/><path d="M 16 28 L 24 24 L 32 28"/><path d="M 32 28 L 40 24 L 48 28"/><path d="M 48 28 L 56 24 L 64 28"/><path d="M 64 28 L 72 24 L 80 28"/><path d="M 80 28 L 88 24 L 96 28"/><path d="M 96 28 L 104 24 L 112 28"/><path d="M 0 38 L 8 34 L 16 38"/><path d="M 16 38 L 24 34 L 32 38"/><path d="M 32 38 L 40 34 L 48 38"/><path d="M 48 38 L 56 34 L 64 38"/><path d="M 64 38 L 72 34 L 80 38"/><path d="M 80 38 L 88 34 L 96 38"/><path d="M 96 38 L 104 34 L 112 38"/><path d="M 0 48 L 8 44 L 16 48"/><path d="M 16 48 L 24 44 L 32 48"/><path d="M 32 48 L 40 44 L 48 48"/><path d="M 48 48 L 56 44 L 64 48"/><path d="M 64 48 L 72 44 L 80 48"/><path d="M 80 48 L 88 44 L 96 48"/><path d="M 96 48 L 104 44 L 112 48"/><path d="M 0 58 L 8 54 L 16 58"/><path d="M 16 58 L 24 54 L 32 58"/><path d="M 32 58 L 40 54 L 48 58"/><path d="M 48 58 L 56 54 L 64 58"/><path d="M 64 58 L 72 54 L 80 58"/><path d="M 80 58 L 88 54 L 96 58"/><path d="M 96 58 L 104 54 L 112 58"/><path d="M 0 68 L 8 64 L 16 68"/><path d="M 16 68 L 24 64 L 32 68"/><path d="M 32 68 L 40 64 L 48 68"/><path d="M 48 68 L 56 64 L 64 68"/><path d="M 64 68 L 72 64 L 80 68"/><path d="M 80 68 L 88 64 L 96 68"/><path d="M 96 68 L 104 64 L 112 68"/></g>
  <text x="1116" y="172" font-family="ui-monospace,Menlo,monospace" font-size="11" fill="#8a939b">HISTORICAL >24h</text>
<text x="24" y="220" font-family="ui-monospace,Menlo,monospace" font-size="14" fill="#e6e9ec" font-weight="bold">Slope severity bands</text>
  <rect x="24.0" y="234" width="100.0" height="34" fill="#3a5a3a" fill-opacity="0.85"/>
  <text x="74.0" y="255" text-anchor="middle" font-family="ui-monospace,Menlo,monospace" font-size="11" fill="#e6e9ec">0-3°</text>
  <text x="74.0" y="290" text-anchor="middle" font-family="ui-monospace,Menlo,monospace" font-size="11" fill="#8a939b">all vehicles</text>
  <rect x="126.0" y="234" width="100.0" height="34" fill="#4a6a3a" fill-opacity="0.85"/>
  <text x="176.0" y="255" text-anchor="middle" font-family="ui-monospace,Menlo,monospace" font-size="11" fill="#e6e9ec">3-10°</text>
  <text x="176.0" y="290" text-anchor="middle" font-family="ui-monospace,Menlo,monospace" font-size="11" fill="#8a939b">wheeled</text>
  <rect x="228.0" y="234" width="100.0" height="34" fill="#7a6a3a" fill-opacity="0.85"/>
  <text x="278.0" y="255" text-anchor="middle" font-family="ui-monospace,Menlo,monospace" font-size="11" fill="#e6e9ec">10-20°</text>
  <text x="278.0" y="290" text-anchor="middle" font-family="ui-monospace,Menlo,monospace" font-size="11" fill="#8a939b">tracked</text>
  <rect x="330.0" y="234" width="100.0" height="34" fill="#8a5a3a" fill-opacity="0.85"/>
  <text x="380.0" y="255" text-anchor="middle" font-family="ui-monospace,Menlo,monospace" font-size="11" fill="#e6e9ec">20-30°</text>
  <text x="380.0" y="290" text-anchor="middle" font-family="ui-monospace,Menlo,monospace" font-size="11" fill="#8a939b">dismount</text>
  <rect x="432.0" y="234" width="100.0" height="34" fill="#7a3a2a" fill-opacity="0.85"/>
  <text x="482.0" y="255" text-anchor="middle" font-family="ui-monospace,Menlo,monospace" font-size="11" fill="#e6e9ec">30-45°</text>
  <text x="482.0" y="290" text-anchor="middle" font-family="ui-monospace,Menlo,monospace" font-size="11" fill="#8a939b">technical</text>
  <rect x="534.0" y="234" width="100.0" height="34" fill="#5a2a22" fill-opacity="0.85"/>
  <text x="584.0" y="255" text-anchor="middle" font-family="ui-monospace,Menlo,monospace" font-size="11" fill="#e6e9ec">45-90°</text>
  <text x="584.0" y="290" text-anchor="middle" font-family="ui-monospace,Menlo,monospace" font-size="11" fill="#8a939b">cliff</text>
<text x="660" y="220" font-family="ui-monospace,Menlo,monospace" font-size="14" fill="#e6e9ec" font-weight="bold">Hypsometric tinting — tactical palette</text>
  <rect x="660.0" y="234" width="54.5" height="34" fill="#0a1f33"/>
  <text x="660.0" y="290" font-family="ui-monospace,Menlo,monospace" font-size="11" fill="#8a939b">-50m</text>
  <rect x="714.0" y="234" width="54.5" height="34" fill="#1f3a4d"/>
  <text x="714.0" y="290" font-family="ui-monospace,Menlo,monospace" font-size="11" fill="#8a939b">0</text>
  <rect x="768.0" y="234" width="54.5" height="34" fill="#2c4a3a"/>
  <text x="768.0" y="290" font-family="ui-monospace,Menlo,monospace" font-size="11" fill="#8a939b">10</text>
  <rect x="822.0" y="234" width="54.5" height="34" fill="#3d5a3a"/>
  <text x="822.0" y="290" font-family="ui-monospace,Menlo,monospace" font-size="11" fill="#8a939b">50</text>
  <rect x="876.0" y="234" width="54.5" height="34" fill="#5d6a3a"/>
  <text x="876.0" y="290" font-family="ui-monospace,Menlo,monospace" font-size="11" fill="#8a939b">100</text>
  <rect x="930.0" y="234" width="54.5" height="34" fill="#7a6a3a"/>
  <text x="930.0" y="290" font-family="ui-monospace,Menlo,monospace" font-size="11" fill="#8a939b">250</text>
  <rect x="984.0" y="234" width="54.5" height="34" fill="#8a5a3a"/>
  <text x="984.0" y="290" font-family="ui-monospace,Menlo,monospace" font-size="11" fill="#8a939b">500</text>
  <rect x="1038.0" y="234" width="54.5" height="34" fill="#7a3a2a"/>
  <text x="1038.0" y="290" font-family="ui-monospace,Menlo,monospace" font-size="11" fill="#8a939b">1km</text>
  <rect x="1092.0" y="234" width="54.5" height="34" fill="#5a2a22"/>
  <text x="1092.0" y="290" font-family="ui-monospace,Menlo,monospace" font-size="11" fill="#8a939b">2km</text>
  <rect x="1146.0" y="234" width="54.5" height="34" fill="#e8e8e8"/>
  <text x="1146.0" y="290" font-family="ui-monospace,Menlo,monospace" font-size="11" fill="#8a939b">4km+</text>
<text x="24" y="704" font-family="ui-monospace,Menlo,monospace" font-size="10" fill="#76d36a">SIGINT-TERRAIN v1.1 — DARK RELIEF — MGRS 18T WL 85438 05964</text>
  <rect x="24" y="340" width="1192" height="320" fill="#11151a" stroke="#1c2228"/>
<text x="40" y="362" font-family="ui-monospace,Menlo,monospace" font-size="13" fill="#e6e9ec" font-weight="bold">NYC datum elevation profile</text>
<text x="40" y="378" font-family="ui-monospace,Menlo,monospace" font-size="10" fill="#8a939b">Cross-harbor transect — 40° 41' N, 74° 02' W → 73° 55' W</text>
  <line x1="104" y1="607.8" x2="1186" y2="607.8" stroke="#1c2228" stroke-width="0.6"/>
  <text x="96" y="611.8" text-anchor="end" font-family="ui-monospace,Menlo,monospace" font-size="10" fill="#8a939b">-20m</text>
  <line x1="104" y1="583.3" x2="1186" y2="583.3" stroke="#1c2228" stroke-width="0.6"/>
  <text x="96" y="587.3" text-anchor="end" font-family="ui-monospace,Menlo,monospace" font-size="10" fill="#9bd1ff">0m MSL</text>
  <line x1="104" y1="491.7" x2="1186" y2="491.7" stroke="#1c2228" stroke-width="0.6"/>
  <text x="96" y="495.7" text-anchor="end" font-family="ui-monospace,Menlo,monospace" font-size="10" fill="#8a939b">75m</text>
  <line x1="104" y1="430.6" x2="1186" y2="430.6" stroke="#1c2228" stroke-width="0.6"/>
  <text x="96" y="434.6" text-anchor="end" font-family="ui-monospace,Menlo,monospace" font-size="10" fill="#8a939b">125m</text>
<path d="M 104.0 400.0 L 104.0 467.2 L 151.0 448.9 L 198.1 430.6 L 254.5 473.3 L 311.0 546.7 L 367.4 593.1 L 423.9 602.9 L 480.3 595.6 L 536.8 577.2 L 612.1 552.8 L 668.5 549.1 L 734.4 566.2 L 790.8 573.6 L 856.7 556.4 L 922.6 528.3 L 969.6 510.0 L 1026.1 522.2 L 1101.3 540.6 L 1186.0 549.1 L 1186.0 400.0 Z" fill="#2a3036" fill-opacity="0.55"/>
<path d="M 104.0 583.3 L 104.0 583.3 L 151.0 583.3 L 198.1 583.3 L 254.5 583.3 L 311.0 583.3 L 367.4 593.1 L 423.9 602.9 L 480.3 595.6 L 536.8 583.3 L 612.1 583.3 L 668.5 583.3 L 734.4 583.3 L 790.8 583.3 L 856.7 583.3 L 922.6 583.3 L 969.6 583.3 L 1026.1 583.3 L 1101.3 583.3 L 1186.0 583.3 L 1186.0 583.3 Z" fill="#0f2433" fill-opacity="0.85"/>
<path d="M 104.0,467.2 L 151.0,448.9 L 198.1,430.6 L 254.5,473.3 L 311.0,546.7 L 367.4,593.1 L 423.9,602.9 L 480.3,595.6 L 536.8,577.2 L 612.1,552.8 L 668.5,549.1 L 734.4,566.2 L 790.8,573.6 L 856.7,556.4 L 922.6,528.3 L 969.6,510.0 L 1026.1,522.2 L 1101.3,540.6 L 1186.0,549.1" fill="none" stroke="#cfd2c7" stroke-width="1.4"/>
<line x1="104" y1="583.3" x2="1186" y2="583.3" stroke="#9bd1ff" stroke-width="0.7" stroke-opacity="0.8"/>
<line x1="198.1" y1="430.6" x2="198.1" y2="402.6" stroke="#e6e9ec" stroke-width="0.5" stroke-opacity="0.6"/>
<text x="198.1" y="398.6" text-anchor="middle" font-family="ui-monospace,Menlo,monospace" font-size="11" fill="#e6e9ec">Todt Hill 125m</text>
<line x1="668.5" y1="549.1" x2="668.5" y2="521.1" stroke="#e6e9ec" stroke-width="0.5" stroke-opacity="0.6"/>
<text x="668.5" y="517.1" text-anchor="middle" font-family="ui-monospace,Menlo,monospace" font-size="11" fill="#e6e9ec">Brooklyn Heights 28m</text>
<line x1="969.6" y1="510.0" x2="969.6" y2="482.0" stroke="#e6e9ec" stroke-width="0.5" stroke-opacity="0.6"/>
<text x="969.6" y="478.0" text-anchor="middle" font-family="ui-monospace,Menlo,monospace" font-size="11" fill="#e6e9ec">Prospect Park 60m</text>
<line x1="423.9" y1="602.9" x2="423.9" y2="624.9" stroke="#9bd1ff" stroke-width="0.5" stroke-opacity="0.6"/>
<text x="423.9" y="636.9" text-anchor="middle" font-family="ui-monospace,Menlo,monospace" font-size="11" fill="#9bd1ff">Harbor -16m</text>
<circle cx="1082.5" cy="568.7" r="4" fill="#76d36a"/>
<text x="1090.5" y="572.7" font-family="ui-monospace,Menlo,monospace" font-size="11" fill="#76d36a">DATUM 12m</text>
</svg>
