<!-- Generated by scripts/build_patterns.py from sigint_terrain_bundle/tokens.json. Do not edit by hand. -->
<svg xmlns="http://www.w3.org/2000/svg" width="200" height="100" viewBox="0 0 200 100">
<rect width="200" height="100" fill="#eef0ec"/>
<g stroke="#6e7b80" stroke-width="0.6" stroke-linecap="round">
  <line x1="-100" y1="100" x2="0" y2="0"/>
  <line x1="-92" y1="100" x2="8" y2="0"/>
  <line x1="-84" y1="100" x2="16" y2="0"/>
  <line x1="-76" y1="100" x2="24" y2="0"/>
  <line x1="-68" y1="100" x2="32" y2="0"/>
  <line x1="-60" y1="100" x2="40" y2="0"/>
  <line x1="-52" y1="100" x2="48" y2="0"/>
  <line x1="-44" y1="100" x2="56" y2="0"/>
  <line x1="-36" y1="100" x2="64" y2="0"/>
  <line x1="-28" y1="100" x2="72" y2="0"/>
  <line x1="-20" y1="100" x2="80" y2="0"/>
  <line x1="-12" y1="100" x2="88" y2="0"/>
  <line x1="-4" y1="100" x2="96" y2="0"/>
  <line x1="4" y1="100" x2="104" y2="0"/>
  <line x1="12" y1="100" x2="112" y2="0"/>
  <line x1="20" y1="100" x2="120" y2="0"/>
  <line x1="28" y1="100" x2="128" y2="0"/>
  <line x1="36" y1="100" x2="136" y2="0"/>
  <line x1="44" y1="100" x2="144" y2="0"/>
  <line x1="52" y1="100" x2="152" y2="0"/>
  <line x1="60" y1="100" x2="160" y2="0"/>
  <line x1="68" y1="100" x2="168" y2="0"/>
  <line x1="76" y1="100" x2="176" y2="0"/>
  <line x1="84" y1="100" x2="184" y2="0"/>
  <line x1="92" y1="100" x2="192" y2="0"/>
  <line x1="100" y1="100" x2="200" y2="0"/>
  <line x1="108" y1="100" x2="208" y2="0"/>
  <line x1="116" y1="100" x2="216" y2="0"/>
  <line x1="124" y1="100" x2="224" y2="0"/>
  <line x1="132" y1="100" x2="232" y2="0"/>
  <line x1="140" y1="100" x2="240" y2="0"/>
  <line x1="148" y1="100" x2="248" y2="0"/>
  <line x1="156" y1="100" x2="256" y2="0"/>
  <line x1="164" y1="100" x2="264" y2="0"/>
  <line x1="172" y1="100" x2="272" y2="0"/>
  <line x1="180" y1="100" x2="280" y2="0"/>
  <line x1="188" y1="100" x2="288" y2="0"/>
  <line x1="196" y1="100" x2="296" y2="0"/>
</g>
<text x="6" y="94" font-family="monospace" font-size="9" fill="#222">5-15°</text>
</svg>
