<!-- Generated by scripts/build_patterns.py from sigint_terrain_bundle/tokens.json. Do not edit by hand. -->
<svg xmlns="http://www.w3.org/2000/svg" width="200" height="100" viewBox="0 0 200 100">
<rect width="200" height="100" fill="#eef0ec"/>
<g stroke="#2a3236" stroke-width="1.1" stroke-linecap="round">
  <line x1="-100" y1="100" x2="0" y2="0"/>
  <line x1="-98" y1="100" x2="2" y2="0"/>
  <line x1="-96" y1="100" x2="4" y2="0"/>
  <line x1="-94" y1="100" x2="6" y2="0"/>
  <line x1="-92" y1="100" x2="8" y2="0"/>
  <line x1="-90" y1="100" x2="10" y2="0"/>
  <line x1="-88" y1="100" x2="12" y2="0"/>
  <line x1="-86" y1="100" x2="14" y2="0"/>
  <line x1="-84" y1="100" x2="16" y2="0"/>
  <line x1="-82" y1="100" x2="18" y2="0"/>
  <line x1="-80" y1="100" x2="20" y2="0"/>
  <line x1="-78" y1="100" x2="22" y2="0"/>
  <line x1="-76" y1="100" x2="24" y2="0"/>
  <line x1="-74" y1="100" x2="26" y2="0"/>
  <line x1="-72" y1="100" x2="28" y2="0"/>
  <line x1="-70" y1="100" x2="30" y2="0"/>
  <line x1="-68" y1="100" x2="32" y2="0"/>
  <line x1="-66" y1="100" x2="34" y2="0"/>
  <line x1="-64" y1="100" x2="36" y2="0"/>
  <line x1="-62" y1="100" x2="38" y2="0"/>
  <line x1="-60" y1="100" x2="40" y2="0"/>
  <line x1="-58" y1="100" x2="42" y2="0"/>
  <line x1="-56" y1="100" x2="44" y2="0"/>
  <line x1="-54" y1="100" x2="46" y2="0"/>
  <line x1="-52" y1="100" x2="48" y2="0"/>
  <line x1="-50" y1="100" x2="50" y2="0"/>
  <line x1="-48" y1="100" x2="52" y2="0"/>
  <line x1="-46" y1="100" x2="54" y2="0"/>
  <line x1="-44" y1="100" x2="56" y2="0"/>
  <line x1="-42" y1="100" x2="58" y2="0"/>
  <line x1="-40" y1="100" x2="60" y2="0"/>
  <line x1="-38" y1="100" x2="62" y2="0"/>
  <line x1="-36" y1="100" x2="64" y2="0"/>
  <line x1="-34" y1="100" x2="66" y2="0"/>
  <line x1="-32" y1="100" x2="68" y2="0"/>
  <line x1="-30" y1="100" x2="70" y2="0"/>
  <line x1="-28" y1="100" x2="72" y2="0"/>
  <line x1="-26" y1="100" x2="74" y2="0"/>
  <line x1="-24" y1="100" x2="76" y2="0"/>
  <line x1="-22" y1="100" x2="78" y2="0"/>
  <line x1="-20" y1="100" x2="80" y2="0"/>
  <line x1="-18" y1="100" x2="82" y2="0"/>
  <line x1="-16" y1="100" x2="84" y2="0"/>
  <line x1="-14" y1="100" x2="86" y2="0"/>
  <line x1="-12" y1="100" x2="88" y2="0"/>
  <line x1="-10" y1="100" x2="90" y2="0"/>
  <line x1="-8" y1="100" x2="92" y2="0"/>
  <line x1="-6" y1="100" x2="94" y2="0"/>
  <line x1="-4" y1="100" x2="96" y2="0"/>
  <line x1="-2" y1="100" x2="98" y2="0"/>
  <line x1="0" y1="100" x2="100" y2="0"/>
  <line x1="2" y1="100" x2="102" y2="0"/>
  <line x1="4" y1="100" x2="104" y2="0"/>
  <line x1="6" y1="100" x2="106" y2="0"/>
  <line x1="8" y1="100" x2="108" y2="0"/>
  <line x1="10" y1="100" x2="110" y2="0"/>
  <line x1="12" y1="100" x2="112" y2="0"/>
  <line x1="14" y1="100" x2="114" y2="0"/>
  <line x1="16" y1="100" x2="116" y2="0"/>
  <line x1="18" y1="100" x2="118" y2="0"/>
  <line x1="20" y1="100" x2="120" y2="0"/>
  <line x1="22" y1="100" x2="122" y2="0"/>
  <line x1="24" y1="100" x2="124" y2="0"/>
  <line x1="26" y1="100" x2="126" y2="0"/>
  <line x1="28" y1="100" x2="128" y2="0"/>
  <line x1="30" y1="100" x2="130" y2="0"/>
  <line x1="32" y1="100" x2="132" y2="0"/>
  <line x1="34" y1="100" x2="134" y2="0"/>
  <line x1="36" y1="100" x2="136" y2="0"/>
  <line x1="38" y1="100" x2="138" y2="0"/>
  <line x1="40" y1="100" x2="140" y2="0"/>
  <line x1="42" y1="100" x2="142" y2="0"/>
  <line x1="44" y1="100" x2="144" y2="0"/>
  <line x1="46" y1="100" x2="146" y2="0"/>
  <line x1="48" y1="100" x2="148" y2="0"/>
  <line x1="50" y1="100" x2="150" y2="0"/>
  <line x1="52" y1="100" x2="152" y2="0"/>
  <line x1="54" y1="100" x2="154" y2="0"/>
  <line x1="56" y1="100" x2="156" y2="0"/>
  <line x1="58" y1="100" x2="158" y2="0"/>
  <line x1="60" y1="100" x2="160" y2="0"/>
  <line x1="62" y1="100" x2="162" y2="0"/>
  <line x1="64" y1="100" x2="164" y2="0"/>
  <line x1="66" y1="100" x2="166" y2="0"/>
  <line x1="68" y1="100" x2="168" y2="0"/>
  <line x1="70" y1="100" x2="170" y2="0"/>
  <line x1="72" y1="100" x2="172" y2="0"/>
  <line x1="74" y1="100" x2="174" y2="0"/>
  <line x1="76" y1="100" x2="176" y2="0"/>
  <line x1="78" y1="100" x2="178" y2="0"/>
  <line x1="80" y1="100" x2="180" y2="0"/>
  <line x1="82" y1="100" x2="182" y2="0"/>
  <line x1="84" y1="100" x2="184" y2="0"/>
  <line x1="86" y1="100" x2="186" y2="0"/>
  <line x1="88" y1="100" x2="188" y2="0"/>
  <line x1="90" y1="100" x2="190" y2="0"/>
  <line x1="92" y1="100" x2="192" y2="0"/>
  <line x1="94" y1="100" x2="194" y2="0"/>
  <line x1="96" y1="100" x2="196" y2="0"/>
  <line x1="98" y1="100" x2="198" y2="0"/>
  <line x1="100" y1="100" x2="200" y2="0"/>
  <line x1="102" y1="100" x2="202" y2="0"/>
  <line x1="104" y1="100" x2="204" y2="0"/>
  <line x1="106" y1="100" x2="206" y2="0"/>
  <line x1="108" y1="100" x2="208" y2="0"/>
  <line x1="110" y1="100" x2="210" y2="0"/>
  <line x1="112" y1="100" x2="212" y2="0"/>
  <line x1="114" y1="100" x2="214" y2="0"/>
  <line x1="116" y1="100" x2="216" y2="0"/>
  <line x1="118" y1="100" x2="218" y2="0"/>
  <line x1="120" y1="100" x2="220" y2="0"/>
  <line x1="122" y1="100" x2="222" y2="0"/>
  <line x1="124" y1="100" x2="224" y2="0"/>
  <line x1="126" y1="100" x2="226" y2="0"/>
  <line x1="128" y1="100" x2="228" y2="0"/>
  <line x1="130" y1="100" x2="230" y2="0"/>
  <line x1="132" y1="100" x2="232" y2="0"/>
  <line x1="134" y1="100" x2="234" y2="0"/>
  <line x1="136" y1="100" x2="236" y2="0"/>
  <line x1="138" y1="100" x2="238" y2="0"/>
  <line x1="140" y1="100" x2="240" y2="0"/>
  <line x1="142" y1="100" x2="242" y2="0"/>
  <line x1="144" y1="100" x2="244" y2="0"/>
  <line x1="146" y1="100" x2="246" y2="0"/>
  <line x1="148" y1="100" x2="248" y2="0"/>
  <line x1="150" y1="100" x2="250" y2="0"/>
  <line x1="152" y1="100" x2="252" y2="0"/>
  <line x1="154" y1="100" x2="254" y2="0"/>
  <line x1="156" y1="100" x2="256" y2="0"/>
  <line x1="158" y1="100" x2="258" y2="0"/>
  <line x1="160" y1="100" x2="260" y2="0"/>
  <line x1="162" y1="100" x2="262" y2="0"/>
  <line x1="164" y1="100" x2="264" y2="0"/>
  <line x1="166" y1="100" x2="266" y2="0"/>
  <line x1="168" y1="100" x2="268" y2="0"/>
  <line x1="170" y1="100" x2="270" y2="0"/>
  <line x1="172" y1="100" x2="272" y2="0"/>
  <line x1="174" y1="100" x2="274" y2="0"/>
  <line x1="176" y1="100" x2="276" y2="0"/>
  <line x1="178" y1="100" x2="278" y2="0"/>
  <line x1="180" y1="100" x2="280" y2="0"/>
  <line x1="182" y1="100" x2="282" y2="0"/>
  <line x1="184" y1="100" x2="284" y2="0"/>
  <line x1="186" y1="100" x2="286" y2="0"/>
  <line x1="188" y1="100" x2="288" y2="0"/>
  <line x1="190" y1="100" x2="290" y2="0"/>
  <line x1="192" y1="100" x2="292" y2="0"/>
  <line x1="194" y1="100" x2="294" y2="0"/>
  <line x1="196" y1="100" x2="296" y2="0"/>
  <line x1="198" y1="100" x2="298" y2="0"/>
</g>
<text x="6" y="94" font-family="monospace" font-size="9" fill="#222">30-45°</text>
</svg>
