<!-- Generated by scripts/build_patterns.py from sigint_terrain_bundle/tokens.json. Do not edit by hand. -->
<svg xmlns="http://www.w3.org/2000/svg" width="720" height="80" viewBox="0 0 720 80">
<rect width="720" height="80" fill="#0d1014"/>
  <rect x="10.00" y="14" width="70.50" height="36" fill="#0a1f33"/>
  <text x="10.00" y="68" font-family="ui-monospace,Menlo,monospace" font-size="11" fill="#8a939b">-50m</text>
  <rect x="80.00" y="14" width="70.50" height="36" fill="#1f3a4d"/>
  <text x="80.00" y="68" font-family="ui-monospace,Menlo,monospace" font-size="11" fill="#8a939b">0</text>
  <rect x="150.00" y="14" width="70.50" height="36" fill="#2c4a3a"/>
  <text x="150.00" y="68" font-family="ui-monospace,Menlo,monospace" font-size="11" fill="#8a939b">10</text>
  <rect x="220.00" y="14" width="70.50" height="36" fill="#3d5a3a"/>
  <text x="220.00" y="68" font-family="ui-monospace,Menlo,monospace" font-size="11" fill="#8a939b">50</text>
  <rect x="290.00" y="14" width="70.50" height="36" fill="#5d6a3a"/>
  <text x="290.00" y="68" font-family="ui-monospace,Menlo,monospace" font-size="11" fill="#8a939b">100</text>
  <rect x="360.00" y="14" width="70.50" height="36" fill="#7a6a3a"/>
  <text x="360.00" y="68" font-family="ui-monospace,Menlo,monospace" font-size="11" fill="#8a939b">250</text>
  <rect x="430.00" y="14" width="70.50" height="36" fill="#8a5a3a"/>
  <text x="430.00" y="68" font-family="ui-monospace,Menlo,monospace" font-size="11" fill="#8a939b">500</text>
  <rect x="500.00" y="14" width="70.50" height="36" fill="#7a3a2a"/>
  <text x="500.00" y="68" font-family="ui-monospace,Menlo,monospace" font-size="11" fill="#8a939b">1km</text>
  <rect x="570.00" y="14" width="70.50" height="36" fill="#5a2a22"/>
  <text x="570.00" y="68" font-family="ui-monospace,Menlo,monospace" font-size="11" fill="#8a939b">2km</text>
  <rect x="640.00" y="14" width="70.50" height="36" fill="#e8e8e8"/>
  <text x="640.00" y="68" font-family="ui-monospace,Menlo,monospace" font-size="11" fill="#8a939b">4km+</text>
</svg>
